<?xml version="1.0" encoding="UTF-8"?>
<!--Generator: Apple Native CoreSVG 341-->
<!DOCTYPE svg
PUBLIC "-//W3C//DTD SVG 1.1//EN"
       "http://www.w3.org/Graphics/SVG/1.1/DTD/svg11.dtd">
<svg version="1.1" xmlns="http://www.w3.org/2000/svg" xmlns:xlink="http://www.w3.org/1999/xlink" viewBox="0 0 294.629 262.207">
 <g>
  <rect height="262.207" opacity="0" width="294.629" x="0" y="0"/>
  <path d="M113.086 244.727L113.086 169.238C113.086 163.77 116.699 160.254 122.168 160.254L172.559 160.254C178.027 160.254 181.543 163.77 181.543 169.238L181.543 244.727ZM37.3047 235.645C37.3047 252.246 47.2656 262.012 64.0625 262.012L230.566 262.012C247.363 262.012 257.324 252.246 257.324 235.645L257.324 130.566L154.98 44.7266C150 40.4297 144.336 40.625 139.551 44.7266L37.3047 130.371ZM9.27734 130.176C12.207 130.176 14.6484 128.613 16.7969 126.758L142.578 21.1914C144.043 19.9219 145.703 19.3359 147.266 19.3359C148.926 19.3359 150.586 19.9219 152.051 21.1914L277.832 126.758C279.98 128.613 282.324 130.176 285.352 130.176C291.113 130.176 294.629 125.977 294.629 121.68C294.629 119.043 293.555 116.504 291.113 114.453L161.426 5.66406C156.934 1.85547 152.148 0 147.266 0C142.48 0 137.695 1.85547 133.203 5.66406L3.51562 114.453C1.07422 116.504 0 119.043 0 121.68C0 125.977 3.41797 130.176 9.27734 130.176ZM230.566 69.043L259.277 93.2617L259.277 37.6953C259.277 32.8125 256.055 29.6875 251.172 29.6875L238.77 29.6875C233.887 29.6875 230.566 32.8125 230.566 37.6953Z" fill="white" fill-opacity="0.85"/>
 </g>
</svg>
