<?xml version="1.0" encoding="UTF-8"?>
<!--Generator: Apple Native CoreSVG 341-->
<!DOCTYPE svg
PUBLIC "-//W3C//DTD SVG 1.1//EN"
       "http://www.w3.org/Graphics/SVG/1.1/DTD/svg11.dtd">
<svg version="1.1" xmlns="http://www.w3.org/2000/svg" xmlns:xlink="http://www.w3.org/1999/xlink" viewBox="0 0 209.668 343.262">
 <g>
  <rect height="343.262" opacity="0" width="209.668" x="0" y="0"/>
  <path d="M41.6016 49.707L41.6016 62.793C41.6016 77.4414 51.8555 87.793 66.2109 87.793L143.457 87.793C157.812 87.793 168.066 77.4414 168.066 62.793L168.066 49.707C168.066 48.7429 168.021 47.7973 167.927 46.875L172.07 46.875C197.07 46.875 209.668 59.668 209.668 84.9609L209.668 278.125C209.668 303.418 197.07 316.113 172.07 316.113L37.5977 316.113C12.5977 316.113 0 303.418 0 278.125L0 84.9609C0 59.668 12.5977 46.875 37.5977 46.875L41.7413 46.875C41.6466 47.7973 41.6016 48.7429 41.6016 49.707ZM46.875 232.52C42.8711 232.52 39.7461 235.645 39.7461 239.551C39.7461 243.359 42.9688 246.68 46.875 246.68L107.031 246.68C110.84 246.68 114.062 243.359 114.062 239.551C114.062 235.645 110.938 232.52 107.031 232.52ZM46.875 183.691C42.8711 183.691 39.7461 186.816 39.7461 190.723C39.7461 194.629 42.8711 197.754 46.875 197.754L162.793 197.754C166.797 197.754 169.922 194.629 169.922 190.723C169.922 186.816 166.797 183.691 162.793 183.691ZM46.875 137.305C42.9688 137.305 39.7461 140.527 39.7461 144.531C39.7461 148.34 42.9688 151.562 46.875 151.562L162.793 151.562C166.699 151.562 169.922 148.34 169.922 144.531C169.922 140.527 166.699 137.305 162.793 137.305Z" fill="white" fill-opacity="0.85"/>
  <path d="M130.859 38.3789L143.457 38.3789C150.293 38.3789 154.492 42.5781 154.492 49.707L154.492 62.793C154.492 69.9219 150.293 74.1211 143.457 74.1211L66.2109 74.1211C59.375 74.1211 55.1758 69.9219 55.1758 62.793L55.1758 49.707C55.1758 42.5781 59.375 38.3789 66.2109 38.3789L78.8086 38.3789C79.4922 24.707 90.918 13.5742 104.883 13.5742C118.75 13.5742 130.176 24.707 130.859 38.3789ZM93.6523 39.1602C93.6523 45.1172 98.6328 50.293 104.883 50.293C111.035 50.293 116.016 45.1172 116.016 39.1602C116.016 32.9102 111.035 27.9297 104.883 27.9297C98.6328 27.9297 93.6523 32.9102 93.6523 39.1602Z" fill="white" fill-opacity="0.85"/>
 </g>
</svg>
