<?xml version="1.0" encoding="UTF-8"?>
<!--Generator: Apple Native CoreSVG 341-->
<!DOCTYPE svg
PUBLIC "-//W3C//DTD SVG 1.1//EN"
       "http://www.w3.org/Graphics/SVG/1.1/DTD/svg11.dtd">
<svg version="1.1" xmlns="http://www.w3.org/2000/svg" xmlns:xlink="http://www.w3.org/1999/xlink" viewBox="0 0 209.668 343.262">
 <g>
  <rect height="343.262" opacity="0" width="209.668" x="0" y="0"/>
  <path d="M209.668 85.0586L209.668 278.125C209.668 303.418 197.07 316.113 172.07 316.113L37.5977 316.113C12.5977 316.113 0 303.418 0 278.125L0 85.0586C0 59.7656 12.5977 46.9727 37.5977 46.9727L41.728 46.9727C41.6434 47.8651 41.6016 48.7775 41.6016 49.707L41.6016 62.793C41.6016 63.3238 41.615 63.849 41.6704 64.3555L38.5742 64.3555C24.5117 64.3555 17.2852 71.7773 17.2852 85.3516L17.2852 277.832C17.2852 291.406 24.5117 298.828 38.5742 298.828L171.094 298.828C185.156 298.828 192.383 291.406 192.383 277.832L192.383 85.3516C192.383 71.7773 185.156 64.3555 171.094 64.3555L167.998 64.3555C168.053 63.849 168.066 63.3238 168.066 62.793L168.066 49.707C168.066 48.7775 168.025 47.8651 167.94 46.9727L172.07 46.9727C197.07 46.9727 209.668 59.7656 209.668 85.0586Z" fill="white" fill-opacity="0.85"/>
  <path d="M66.2109 74.1211L143.457 74.1211C150.293 74.1211 154.492 69.9219 154.492 62.793L154.492 49.707C154.492 42.5781 150.293 38.3789 143.457 38.3789L130.859 38.3789C130.176 24.707 118.75 13.5742 104.883 13.5742C90.918 13.5742 79.4922 24.707 78.8086 38.3789L66.2109 38.3789C59.375 38.3789 55.1758 42.5781 55.1758 49.707L55.1758 62.793C55.1758 69.9219 59.375 74.1211 66.2109 74.1211ZM104.883 50.293C98.6328 50.293 93.6523 45.1172 93.6523 39.1602C93.6523 32.9102 98.6328 27.9297 104.883 27.9297C111.035 27.9297 116.016 32.9102 116.016 39.1602C116.016 45.1172 111.035 50.293 104.883 50.293Z" fill="white" fill-opacity="0.85"/>
  <path d="M48.2422 144.531L161.426 144.531C165.137 144.531 168.262 141.406 168.262 137.695C168.262 133.984 165.137 130.859 161.426 130.859L48.2422 130.859C44.5312 130.859 41.4062 133.984 41.4062 137.695C41.4062 141.406 44.5312 144.531 48.2422 144.531ZM48.2422 189.648L161.426 189.648C165.234 189.648 168.262 186.621 168.262 182.812C168.262 179.102 165.234 176.074 161.426 176.074L48.2422 176.074C44.4336 176.074 41.4062 179.102 41.4062 182.812C41.4062 186.621 44.4336 189.648 48.2422 189.648ZM48.2422 237.402L107.031 237.402C110.742 237.402 113.867 234.277 113.867 230.566C113.867 226.758 110.84 223.73 107.031 223.73L48.2422 223.73C44.4336 223.73 41.4062 226.758 41.4062 230.566C41.4062 234.277 44.5312 237.402 48.2422 237.402Z" fill="white" fill-opacity="0.85"/>
 </g>
</svg>
