<?xml version="1.0" encoding="UTF-8"?>
<!--Generator: Apple Native CoreSVG 341-->
<!DOCTYPE svg
PUBLIC "-//W3C//DTD SVG 1.1//EN"
       "http://www.w3.org/Graphics/SVG/1.1/DTD/svg11.dtd">
<svg version="1.1" xmlns="http://www.w3.org/2000/svg" xmlns:xlink="http://www.w3.org/1999/xlink" viewBox="0 0 254.395 254.59">
 <g>
  <rect height="254.59" opacity="0" width="254.395" x="0" y="0"/>
  <path d="M254.395 127.246C254.395 197.266 197.266 254.395 127.148 254.395C57.1289 254.395 0 197.266 0 127.246C0 57.1289 57.1289 0 127.148 0C197.266 0 254.395 57.1289 254.395 127.246ZM48.2422 204.785C67.3828 225.195 96.6797 238.086 127.148 238.086C157.52 238.086 186.914 225.195 206.055 204.785C192.188 182.812 161.523 169.727 127.148 169.727C92.4805 169.727 61.9141 183.008 48.2422 204.785ZM84.082 100.781C84.082 127.832 102.93 148.145 127.148 148.34C151.367 148.535 170.215 127.832 170.215 100.781C170.215 75.3906 151.172 54.2969 127.148 54.2969C103.125 54.2969 83.8867 75.3906 84.082 100.781Z" fill="white" fill-opacity="0.85"/>
 </g>
</svg>
