<?xml version="1.0" encoding="UTF-8"?>
<!--Generator: Apple Native CoreSVG 341-->
<!DOCTYPE svg
PUBLIC "-//W3C//DTD SVG 1.1//EN"
       "http://www.w3.org/Graphics/SVG/1.1/DTD/svg11.dtd">
<svg version="1.1" xmlns="http://www.w3.org/2000/svg" xmlns:xlink="http://www.w3.org/1999/xlink" viewBox="0 0 254.395 254.59">
 <g>
  <rect height="254.59" opacity="0" width="254.395" x="0" y="0"/>
  <path d="M127.148 254.395C197.363 254.395 254.395 197.461 254.395 127.246C254.395 57.0312 197.363 0 127.148 0C56.9336 0 0 57.0312 0 127.246C0 197.461 56.9336 254.395 127.148 254.395ZM127.148 236.23C66.8945 236.23 18.1641 187.5 18.1641 127.246C18.1641 66.9922 66.8945 18.2617 127.148 18.2617C187.402 18.2617 236.133 66.9922 236.133 127.246C236.133 187.5 187.402 236.23 127.148 236.23ZM212.988 209.668L212.695 208.496C205.957 190.332 172.949 169.629 127.148 169.629C81.543 169.629 48.5352 190.234 41.6016 208.301L41.3086 209.668C63.8672 232.227 100.684 245.703 127.246 245.703C153.809 245.703 190.039 232.52 212.988 209.668ZM127.148 148.145C151.367 148.34 170.215 127.637 170.215 100.684C170.215 75.293 151.172 54.1992 127.148 54.1992C103.125 54.1992 83.9844 75.293 84.082 100.684C84.1797 127.637 102.93 147.949 127.148 148.145Z" fill="white" fill-opacity="0.85"/>
 </g>
</svg>
